<svg xmlns="http://www.w3.org/2000/svg" viewBox="0 0 64 64">
  <title>Foxfire fox</title>
  <rect width="64" height="64" rx="14" fill="#1c2d25"/>
  <g stroke="#493626" stroke-width="2" stroke-linejoin="round">
    <path d="M10 29 7 6Q7 4 10 6L27 18M54 29 57 6Q57 4 54 6L37 18" fill="#f29a4c"/>
    <path d="m11 11 11 10-9 3Zm42 0-11 10 9 3Z" fill="#674232" stroke="none"/>
    <path d="M32 14C19 14 10 22 9 33 8 44 21 55 32 59 43 55 56 44 55 33 54 22 45 14 32 14Z" fill="#f29a4c"/>
  </g>
  <path d="M12 32C21 29 27 34 32 42 37 34 43 29 52 32 53 43 41 53 32 56 23 53 11 43 12 32Z" fill="#fff0cf"/>
  <g fill="#272d25">
    <circle cx="22" cy="31" r="3.5"/>
    <circle cx="42" cy="31" r="3.5"/>
    <path d="M27 44Q32 42 37 44C39 47 34 51 32 51S25 47 27 44Z"/>
  </g>
  <g fill="#fff">
    <circle cx="21" cy="30" r="1"/>
    <circle cx="41" cy="30" r="1"/>
  </g>
</svg>
